<svg width="240" height="94" viewBox="0 0 240 94" fill="none" xmlns="http://www.w3.org/2000/svg">
<path d="M56.6198 41.7204C55.6688 44.2987 54.9863 46.693 54.5422 49.0411C54.3013 50.3162 54.1375 51.574 54.0531 52.771C53.9658 54.1342 53.9806 55.3453 54.0961 56.4786L54.1307 56.8203L54.2077 57.387L54.303 57.9491L54.3731 58.2858C54.5065 58.9182 54.6605 59.485 54.8511 60.0252C55.0567 60.6083 55.2918 61.1587 55.5515 61.6621L55.6568 61.8576C55.6648 61.877 55.6769 61.8974 55.6889 61.9177C55.712 61.9626 55.7361 62.0032 55.7602 62.0439L55.7632 62.049L55.9891 62.4304L56.2564 62.8345C56.2695 62.8507 56.2815 62.8711 56.2906 62.8863L56.4887 63.1559C56.8549 63.6443 57.2405 64.0889 57.6406 64.4753C58.0478 64.8677 58.5068 65.2413 58.9963 65.5956C59.4514 65.9157 59.9463 66.2141 60.507 66.5058L60.9122 66.7001C60.9354 66.7099 60.9617 66.7247 60.985 66.7345C61.0274 66.753 61.0648 66.7748 61.1072 66.7934L61.3124 66.8802C61.363 66.9006 61.4125 66.9252 61.463 66.9456C61.5479 66.9827 61.6369 67.0208 61.7228 67.0538L62.1444 67.2168C62.1676 67.2265 62.1949 67.2372 62.2222 67.2479C62.2647 67.2664 62.3082 67.2809 62.3476 67.2943L62.9918 67.5086L63.6463 67.6989C63.6898 67.7133 63.7343 67.7236 63.7829 67.7348C63.8112 67.7413 63.8355 67.7469 63.8638 67.7534C64.3939 67.8931 64.9737 68.0223 65.6417 68.1411C66.8017 68.3468 68.0248 68.4705 69.2778 68.5089C69.3457 68.5113 69.4146 68.5096 69.4865 68.513C69.7205 68.5186 69.9596 68.521 70.1957 68.5183L70.1997 68.5192C70.4479 68.5193 70.6982 68.5111 70.9434 68.5061L71.1207 68.4987C71.216 68.4943 71.3153 68.4908 71.4116 68.4822C71.4683 68.4778 71.5241 68.4774 71.5808 68.4729L71.8109 68.46C71.8585 68.4578 71.9071 68.4515 71.9548 68.4493C71.9811 68.4466 72.0115 68.4448 72.0379 68.4421L72.497 68.4029L72.9582 68.3555C73.0941 68.3429 73.2309 68.3261 73.3637 68.3084L73.4164 68.303C73.4702 68.2934 73.527 68.2889 73.5807 68.2793C73.6071 68.2766 73.6385 68.2707 73.6648 68.268C74.7743 66.9251 74.1281 65.002 70.919 65.4967C65.466 66.3396 61.6754 64.3596 67.525 63.8145C73.3786 63.2703 77.0538 61.6271 76.1439 58.8045C75.2341 55.9819 62.1331 64.2235 62.1882 62.8178C62.2434 61.412 67.9738 60.4003 69.6608 58.6635C71.3478 56.9267 70.3756 53.8394 65.0493 58.6375C59.7231 63.4356 57.346 58.3954 57.346 58.3954C57.4561 54.6748 59.9039 53.5085 66.4261 49.1835C72.7745 44.9723 73.1351 32.1267 58.844 36.5238C58.8112 36.5866 58.7825 36.6502 58.7487 36.7171C57.9557 38.37 57.2376 40.049 56.6198 41.7204Z" fill="#00C4B0"/>
<path d="M99.6511 53.1089C96.9993 52.0124 90.0053 59.3615 90.0053 59.3615C87.2838 62.3407 83.898 65.2243 80.3525 67.1088C76.0432 69.4 70.9865 70.186 66.2533 69.6737C61.8978 69.1999 57.49 67.4516 54.9319 63.8916C53.4916 61.8868 52.7279 59.4288 52.4765 56.9344C51.9585 51.7477 53.343 46.2975 55.393 41.5083C56.0106 40.066 56.7096 38.66 57.4877 37.2988C58.0613 36.2921 58.8459 35.4223 59.4245 34.4301C61.6936 30.5565 63.9003 26.9157 64.4781 23.0276C65.6408 15.2575 62.5192 10.0757 60.821 9.64034C59.1229 9.20495 47.6546 11.6388 45.7152 12.5162C45.6376 12.5513 43.5041 11.8435 41.6598 12.2705C39.9113 12.6754 38.6055 13.893 37.8554 15.5387C37.4185 16.4974 37.1635 17.5378 37.0337 18.5761C37.0082 18.7644 37.0678 19.8198 36.9418 19.9453C33.8724 22.8709 30.3068 27.1829 27.4594 32.3931C27.4744 32.4363 27.4935 32.4805 27.5075 32.5278C27.5748 32.7067 27.6359 32.8929 27.695 33.0698L27.714 33.1316C27.7892 33.3652 27.8683 33.6173 27.9623 33.9303C28.1064 34.4049 28.2452 34.918 28.4037 35.5416C29.3879 39.4276 29.8697 43.5687 29.6872 47.614C29.5118 51.458 28.6449 55.3324 26.8354 58.7601C26.5834 58.6667 26.6342 58.29 26.7263 58.0243C27.7769 55.0353 28.3629 51.8907 28.4582 48.7478C28.5077 47.0995 28.4269 45.4565 28.3461 43.8135C28.1678 40.2324 27.9865 36.6285 27.2497 33.1305C26.6221 30.161 24.1446 28.469 21.1852 29.2968C13.0474 31.571 8.74965 50.7089 17.5374 60.1491C17.5374 60.1491 13.9094 60.7257 8.80739 58.9323C3.7054 57.1388 2.93251 62.6549 10.2738 62.7131C17.615 62.7713 17.6689 62.2099 17.4807 63.1376C17.2924 64.0653 4.65052 63.1831 3.05361 64.7574C1.22228 66.5645 5.31562 72.0762 11.059 68.1909C16.8024 64.3055 18.9593 64.6259 17.9745 65.9881C16.9897 67.3502 8.38361 69.6049 8.99476 73.3652C9.60592 77.1256 15.3077 75.3053 18.4835 69.8132C21.0982 65.2953 23.7554 67.8364 25.9555 66.1893C33.8934 81.0749 51.7369 84.5415 59.43 86.3978C67.7078 88.3933 72.6291 84.0096 75.8551 80.5595C79.0811 77.1094 84.7639 80.7141 88.1309 73.7652C91.4978 66.8164 93.1713 68.0406 97.1409 64.5411C101.11 61.0417 102.303 54.2054 99.6511 53.1089ZM59.5115 18.9656C60.7671 19.7096 60.7575 22.0601 59.4884 24.2175C58.2193 26.3748 56.1706 27.5184 54.9109 26.7735C53.6553 26.0296 53.6649 23.6791 54.934 21.5217C56.2031 19.3643 58.2518 18.2208 59.5115 18.9656ZM52.2146 19.7475C52.3227 19.5208 52.4482 19.2937 52.5837 19.0777C52.7295 18.8553 52.8803 18.6473 53.0443 18.4555C53.2133 18.2605 53.3935 18.0725 53.591 17.9017C53.8048 17.717 54.0062 17.5648 54.2105 17.4353C54.4415 17.2855 54.66 17.1681 54.8825 17.0693C55.0183 17.0079 55.1285 16.9627 55.2325 16.9248L55.256 16.917C55.308 16.8981 55.356 16.8782 55.411 16.8644C55.4631 16.8455 55.5233 16.8285 55.5885 16.8082C56.0577 16.6691 56.5448 16.596 57.0387 16.5818C57.2933 16.5786 57.5315 16.5894 57.7574 16.6149C58.0373 16.6485 58.262 16.6959 58.4653 16.7604L59.3649 17.0515L58.4144 17.1371C57.9876 17.1756 57.5473 17.2507 57.1119 17.3578C56.6715 17.4682 56.2634 17.6038 55.9001 17.7672C55.8521 17.7871 55.8082 17.8079 55.7592 17.8319C55.7204 17.8494 55.6806 17.8711 55.6418 17.8887L55.6173 17.9007C55.504 17.9585 55.4192 18.0051 55.3436 18.0495C55.1424 18.1665 54.9728 18.2775 54.8245 18.389C54.6344 18.5306 54.4871 18.6555 54.353 18.7791C54.1852 18.9347 54.0459 19.0792 53.928 19.2242C53.429 19.811 53.0167 20.5503 52.7014 21.4355C52.5619 21.8227 52.4364 22.2396 52.3148 22.7103L52.2326 23.0401L52.1544 23.3708C52.1408 23.4427 52.1221 23.5178 52.1085 23.5897C52.098 23.6315 52.0887 23.6691 52.0823 23.7117L52.0771 23.7326C52.0552 23.8379 52.0322 23.9474 52.0052 24.0559L51.7761 24.9919L51.6376 24.0463C51.4941 23.0862 51.5288 22.1187 51.7406 21.1656C51.8379 20.6892 52.0003 20.2102 52.2146 19.7475ZM72.1949 76.1056C65.5656 77.1604 58.5077 75.9139 52.3568 73.5654C48.5787 72.1211 44.7362 69.9689 42.035 66.8792C38.6811 63.0431 36.934 57.869 36.7817 52.665C36.6294 47.4611 38.0036 42.2248 40.3006 37.497C38.4336 45.0209 38.2232 54.2507 41.7277 61.1407C43.9072 65.4257 47.372 68.5237 51.4433 70.552C55.1165 72.3826 59.281 73.3465 63.4396 73.5234C73.6676 73.9598 84.4281 70.0518 91.4814 62.0852C91.4773 62.0842 84.7586 74.1094 72.1949 76.1056Z" fill="#00C4B0"/>
<path d="M83.4761 12.4233V19.2724H91.9844V25.5471H83.4761V49.4368H77.2022V25.5471H73.6133V19.2724H77.2022V12.4233C77.2022 10.7789 77.6047 9.27121 78.4099 7.91664C79.215 6.55662 80.2952 5.47638 81.6553 4.67125C83.0106 3.87078 84.5222 3.46822 86.1915 3.46822C87.3992 3.46822 88.5773 3.70913 89.7213 4.19019C90.8699 4.67125 91.8911 5.41731 92.7996 6.42373L88.3022 10.8574C88.0815 10.4944 87.7769 10.2193 87.3844 10.0274C86.992 9.83542 86.5941 9.7375 86.1915 9.7375C85.4501 9.7375 84.812 10.0025 84.2766 10.5232C83.7466 11.0493 83.4761 11.6827 83.4761 12.4233Z" fill="#00C4B0"/>
<path d="M95.9019 49.4368V19.2724H102.176V22.4688C103.222 21.2215 104.508 20.2399 106.04 19.5133C107.567 18.7913 109.216 18.4284 110.984 18.4284C112.113 18.4284 113.228 18.5807 114.332 18.8799L111.828 25.2129C111.048 24.9137 110.262 24.7614 109.476 24.7614C108.151 24.7614 106.934 25.0901 105.828 25.7429C104.719 26.3958 103.835 27.2747 103.172 28.379C102.509 29.4888 102.176 30.7159 102.176 32.0612V49.436H95.9019V49.4368Z" fill="#00C4B0"/>
<path d="M128.001 50.2217C125.222 50.2217 122.693 49.5052 120.41 48.0814C118.127 46.653 116.311 44.7381 114.951 42.332C113.595 39.9314 112.918 37.2704 112.918 34.3538C112.918 32.1397 113.311 30.0779 114.092 28.1529C114.878 26.2333 115.958 24.5446 117.337 23.0866C118.712 21.6287 120.318 20.4894 122.149 19.6648C123.975 18.8403 125.929 18.4276 128.001 18.4276C130.774 18.4276 133.303 19.1395 135.586 20.5679C137.869 21.9963 139.685 23.9159 141.045 26.332C142.401 28.7428 143.083 31.4185 143.083 34.3538C143.083 36.5438 142.69 38.5955 141.905 40.5057C141.119 42.4206 140.039 44.1047 138.665 45.5572C137.285 47.0206 135.684 48.1591 133.868 48.9837C132.046 49.8098 130.092 50.2217 128.001 50.2217ZM128.001 43.9477C129.67 43.9477 131.168 43.5055 132.493 42.6173C133.818 41.7336 134.869 40.5648 135.645 39.1069C136.42 37.6489 136.808 36.0627 136.808 34.3546C136.808 32.6068 136.41 30.9965 135.615 29.5285C134.82 28.0604 133.759 26.8869 132.434 26.0134C131.103 25.1399 129.626 24.7023 128 24.7023C126.35 24.7023 124.858 25.1445 123.517 26.0282C122.182 26.9164 121.126 28.0899 120.35 29.558C119.575 31.026 119.192 32.6262 119.192 34.3546C119.192 36.1467 119.59 37.7616 120.395 39.2102C121.2 40.6588 122.27 41.8121 123.611 42.6662C124.946 43.5203 126.41 43.9477 128.001 43.9477Z" fill="#00C4B0"/>
<path d="M169.23 19.2724H175.505V50.2217C175.505 52.2936 175.068 54.203 174.194 55.9509C173.315 57.6987 172.137 59.2157 170.649 60.4918C169.157 61.7678 167.453 62.7603 165.533 63.462C163.613 64.1638 161.605 64.5174 159.514 64.5174C157.403 64.5174 155.376 64.0705 153.421 63.1768C151.472 62.2784 149.758 61.0661 148.281 59.539C146.804 58.0119 145.703 56.2843 144.977 54.3499L150.741 51.7573C151.139 53.0047 151.791 54.109 152.685 55.0758C153.579 56.0426 154.624 56.8042 155.823 57.3684C157.02 57.9279 158.248 58.2131 159.515 58.2131C160.762 58.2131 161.964 58.0165 163.123 57.6241C164.277 57.2316 165.313 56.686 166.231 55.9796C167.144 55.2778 167.871 54.4331 168.416 53.4461C168.96 52.4591 169.231 51.3843 169.231 50.2209V45.1197C168.244 46.6515 166.977 47.884 165.43 48.8166C163.879 49.7546 162.083 50.2209 160.03 50.2209C157.899 50.2209 155.886 49.8082 153.996 48.9837C152.106 48.1591 150.447 47.0198 149.018 45.5572C147.594 44.104 146.475 42.4199 145.67 40.5057C144.869 38.5963 144.467 36.5438 144.467 34.3538C144.467 32.1638 144.869 30.1074 145.67 28.1871C146.475 26.2629 147.594 24.5733 149.018 23.1154C150.446 21.6575 152.106 20.5182 153.996 19.6936C155.886 18.869 157.899 18.4564 160.03 18.4564C162.083 18.4564 163.879 18.9227 165.43 19.8607C166.977 20.7933 168.244 22.0359 169.231 23.5871V19.2724H169.23ZM160.089 44.1584C161.842 44.1584 163.369 43.7115 164.674 42.8131C165.98 41.9194 166.996 40.7264 167.723 39.239C168.445 37.7515 168.808 36.1218 168.808 34.3538C168.808 32.5423 168.44 30.9025 167.708 29.4197C166.972 27.9415 165.95 26.7587 164.645 25.8603C163.339 24.9666 161.817 24.5197 160.089 24.5197C158.4 24.5197 156.858 24.9619 155.46 25.8455C154.061 26.7338 152.951 27.9174 152.126 29.4049C151.302 30.897 150.889 32.5423 150.889 34.3538C150.889 36.1653 151.307 37.8152 152.141 39.3027C152.976 40.7902 154.095 41.9683 155.489 42.8473C156.888 43.7216 158.42 44.1584 160.089 44.1584Z" fill="#00C4B0"/>
<path d="M181.117 49.4367V4.19014H187.391V49.4359H181.117V49.4367Z" fill="#00C4B0"/>
<path d="M205.884 50.2217C203.105 50.2217 200.577 49.5052 198.294 48.0814C196.011 46.653 194.195 44.7381 192.835 42.332C191.479 39.9314 190.802 37.2704 190.802 34.3538C190.802 32.1397 191.195 30.0779 191.976 28.1529C192.761 26.2333 193.842 24.5446 195.221 23.0866C196.596 21.6287 198.202 20.4894 200.032 19.6648C201.859 18.8403 203.813 18.4276 205.884 18.4276C208.196 18.4276 210.318 18.904 212.247 19.8615C214.177 20.8142 215.826 22.1346 217.196 23.8133C218.561 25.4927 219.567 27.4216 220.21 29.6015C220.854 31.7861 221.045 34.1035 220.785 36.5586H197.529C197.789 37.9427 198.294 39.1947 199.05 40.3091C199.806 41.4282 200.768 42.3072 201.947 42.9506C203.12 43.5941 204.436 43.9275 205.884 43.947C207.411 43.947 208.805 43.5638 210.062 42.7983C211.318 42.0375 212.345 40.9821 213.15 39.6314L219.518 41.1096C218.31 43.7853 216.489 45.9699 214.059 47.6734C211.624 49.3723 208.899 50.2217 205.884 50.2217ZM197.318 31.762H214.452C214.25 30.3134 213.74 28.9977 212.925 27.8249C212.109 26.6468 211.094 25.7142 209.881 25.0171C208.663 24.3246 207.332 23.9765 205.884 23.9765C204.456 23.9765 203.13 24.32 201.918 25.0023C200.7 25.6893 199.694 26.6172 198.899 27.7962C198.103 28.9689 197.577 30.2939 197.318 31.762Z" fill="#00C4B0"/>
<path d="M239.903 25.5471H233.57L233.54 49.4367H227.266L227.295 25.5471H222.499V19.2723H227.295L227.266 9.80195H233.54L233.57 19.2723H239.903V25.5471Z" fill="#00C4B0"/>
<path d="M182.591 65.7518C181.668 65.7518 180.809 65.572 180.013 65.2122C179.223 64.8524 178.535 64.3569 177.947 63.7257C177.36 63.0882 176.898 62.356 176.564 61.5292C176.235 60.696 176.071 59.806 176.071 58.8592C176.071 57.8619 176.248 56.9467 176.601 56.1135C176.962 55.2804 177.451 54.5577 178.07 53.9454C178.689 53.3332 179.391 52.8598 180.174 52.5252C180.964 52.1907 181.785 52.0234 182.638 52.0234C183.592 52.0234 184.517 52.2475 185.415 52.6956C186.318 53.1375 187.114 53.8223 187.803 54.7502L185.737 55.8579C185.313 55.3403 184.827 54.9553 184.277 54.7028C183.734 54.444 183.178 54.3147 182.61 54.3147C182.054 54.3147 181.52 54.4283 181.008 54.6555C180.503 54.8827 180.051 55.2046 179.653 55.6212C179.261 56.0315 178.952 56.5175 178.724 57.0793C178.497 57.6347 178.383 58.2438 178.383 58.9066C178.383 59.5315 178.494 60.1216 178.715 60.6771C178.936 61.2262 179.239 61.7091 179.624 62.1256C180.016 62.5359 180.468 62.8578 180.98 63.0914C181.491 63.3249 182.041 63.4417 182.628 63.4417C183.02 63.4417 183.402 63.3817 183.775 63.2618C184.154 63.1356 184.508 62.9557 184.836 62.7221C185.171 62.4886 185.468 62.2045 185.727 61.87C185.993 61.5355 186.214 61.1568 186.391 60.7339H183.974V58.7172H189.11C189.136 59.6829 188.984 60.5887 188.655 61.4345C188.327 62.2803 187.863 63.0283 187.262 63.6784C186.662 64.3285 185.964 64.8366 185.168 65.2027C184.372 65.5688 183.513 65.7518 182.591 65.7518Z" fill="#00C4B0"/>
<path d="M198.822 56.0378H201.134V65.5057H198.813L198.718 64.3317C198.453 64.7546 198.105 65.0986 197.675 65.3637C197.252 65.6224 196.753 65.7518 196.178 65.7518C195.477 65.7518 194.82 65.6193 194.207 65.3542C193.594 65.0891 193.054 64.723 192.587 64.2559C192.119 63.7888 191.756 63.2492 191.497 62.6369C191.238 62.0247 191.108 61.3682 191.108 60.6676C191.108 59.9922 191.232 59.3579 191.478 58.7646C191.724 58.1712 192.072 57.6505 192.52 57.2024C192.969 56.7542 193.487 56.4039 194.074 56.1514C194.662 55.8989 195.294 55.7727 195.97 55.7727C196.602 55.7727 197.164 55.9116 197.657 56.1893C198.156 56.467 198.579 56.8205 198.926 57.2497L198.822 56.0378ZM196.245 63.5269C196.75 63.5269 197.189 63.3975 197.562 63.1387C197.935 62.8799 198.216 62.5359 198.405 62.1067C198.601 61.6712 198.68 61.1915 198.642 60.6676C198.598 60.1753 198.453 59.7303 198.206 59.3326C197.96 58.9287 197.644 58.6068 197.259 58.3669C196.873 58.1271 196.44 58.0071 195.96 58.0071C195.461 58.0071 195.013 58.1365 194.615 58.3953C194.223 58.6541 193.92 59.0013 193.705 59.4368C193.49 59.866 193.405 60.3457 193.449 60.8759C193.5 61.3619 193.658 61.8069 193.923 62.2109C194.188 62.6085 194.523 62.9273 194.927 63.1671C195.338 63.407 195.777 63.5269 196.245 63.5269Z" fill="#00C4B0"/>
<path d="M204.119 65.5057V56.0378H206.432V56.9941C206.71 56.6848 207.003 56.4355 207.313 56.2461C207.629 56.0504 207.986 55.9526 208.384 55.9526C209.028 55.9526 209.616 56.0883 210.146 56.3597C210.683 56.6248 211.145 57.0035 211.53 57.4959C211.915 57.0035 212.377 56.6248 212.914 56.3597C213.451 56.0883 214.038 55.9526 214.676 55.9526C215.491 55.9526 216.218 56.1546 216.856 56.5585C217.5 56.9625 218.009 57.5053 218.381 58.187C218.754 58.8624 218.941 59.6103 218.941 60.4309V65.5057H216.628V60.4309C216.628 60.0269 216.546 59.664 216.382 59.3421C216.218 59.0139 215.987 58.7519 215.69 58.5563C215.4 58.3606 215.062 58.2628 214.676 58.2628C214.291 58.2628 213.946 58.3606 213.643 58.5563C213.346 58.7519 213.113 59.0139 212.942 59.3421C212.771 59.664 212.686 60.0269 212.686 60.4309V65.5057H210.374V60.4309C210.374 60.0269 210.285 59.664 210.109 59.3421C209.938 59.0139 209.701 58.7519 209.398 58.5563C209.101 58.3606 208.763 58.2628 208.384 58.2628C208.017 58.2628 207.686 58.3637 207.389 58.5657C207.092 58.7677 206.858 59.036 206.688 59.3705C206.517 59.705 206.432 60.0711 206.432 60.4688V65.5057H204.119Z" fill="#00C4B0"/>
<path d="M225.747 65.7518C224.875 65.7518 224.079 65.5278 223.359 65.0796C222.645 64.6315 222.073 64.0287 221.644 63.2713C221.221 62.5138 221.009 61.6775 221.009 60.7623C221.009 60.0743 221.132 59.4305 221.378 58.8308C221.625 58.2249 221.963 57.6947 222.392 57.2402C222.828 56.7795 223.334 56.4197 223.909 56.1609C224.484 55.9021 225.096 55.7727 225.747 55.7727C226.486 55.7727 227.162 55.9305 227.775 56.2461C228.394 56.5554 228.919 56.9814 229.348 57.5243C229.778 58.0671 230.09 58.6857 230.286 59.38C230.482 60.0743 230.526 60.8001 230.419 61.5576H223.492C223.58 61.911 223.725 62.2298 223.928 62.5138C224.13 62.7916 224.386 63.0156 224.695 63.186C225.005 63.3502 225.355 63.4354 225.747 63.4417C226.151 63.448 226.518 63.3533 226.846 63.1576C227.181 62.9557 227.459 62.6843 227.68 62.3434L230.04 62.8925C229.655 63.732 229.08 64.42 228.315 64.9565C227.551 65.4867 226.695 65.7518 225.747 65.7518ZM223.416 59.825H228.078C228.009 59.4462 227.86 59.1054 227.633 58.8024C227.412 58.4931 227.137 58.247 226.808 58.0639C226.48 57.8809 226.126 57.7894 225.747 57.7894C225.368 57.7894 225.017 57.8809 224.695 58.0639C224.373 58.2407 224.098 58.4837 223.871 58.793C223.65 59.0959 223.498 59.4399 223.416 59.825Z" fill="#00C4B0"/>
<path d="M236.116 65.6761C235.623 65.6445 235.146 65.5467 234.685 65.3826C234.23 65.2122 233.825 64.9818 233.472 64.6914C233.118 64.4011 232.846 64.0539 232.657 63.65L234.609 62.8168C234.685 62.943 234.808 63.0787 234.978 63.2239C235.149 63.3628 235.351 63.4796 235.585 63.5742C235.825 63.6689 236.087 63.7162 236.371 63.7162C236.612 63.7162 236.839 63.6847 237.054 63.6216C237.275 63.5521 237.452 63.448 237.584 63.3091C237.723 63.1703 237.793 62.9904 237.793 62.7695C237.793 62.5359 237.711 62.356 237.547 62.2298C237.389 62.0972 237.186 61.9994 236.94 61.9363C236.7 61.8669 236.466 61.8037 236.239 61.7469C235.639 61.627 235.08 61.4408 234.561 61.1883C234.05 60.9359 233.636 60.6108 233.32 60.2131C233.01 59.8092 232.856 59.3232 232.856 58.7551C232.856 58.1302 233.02 57.5905 233.348 57.1361C233.677 56.6816 234.11 56.3313 234.647 56.0851C235.184 55.839 235.762 55.7159 236.381 55.7159C237.133 55.7159 237.821 55.8737 238.447 56.1893C239.079 56.4986 239.578 56.9373 239.944 57.5053L238.115 58.5847C238.027 58.4332 237.903 58.2943 237.746 58.1681C237.588 58.0355 237.408 57.9282 237.205 57.8462C237.003 57.7578 236.792 57.7073 236.57 57.6947C236.286 57.6821 236.027 57.7073 235.793 57.7704C235.56 57.8335 235.37 57.9408 235.225 58.0923C235.086 58.2438 235.016 58.4458 235.016 58.6983C235.016 58.9381 235.111 59.118 235.301 59.2379C235.49 59.3516 235.718 59.4399 235.983 59.503C236.255 59.5662 236.514 59.6356 236.76 59.7113C237.316 59.8944 237.837 60.1185 238.324 60.3836C238.816 60.6487 239.211 60.9737 239.508 61.3587C239.805 61.7438 239.947 62.2045 239.935 62.7411C239.935 63.3533 239.751 63.8898 239.385 64.3506C239.019 64.8051 238.545 65.1522 237.963 65.3921C237.389 65.6319 236.773 65.7266 236.116 65.6761Z" fill="#00C4B0"/>
</svg>
